<!DOCTYPE svg PUBLIC "-//W3C//DTD SVG 1.1//EN" "http://www.w3.org/Graphics/SVG/1.1/DTD/svg11.dtd">

<svg version="1.1" id="svglogo" xmlns="http://www.w3.org/2000/svg" xmlns:xlink="http://www.w3.org/1999/xlink" width="548" height="164" viewBox="-90 -25 548 164" overflow="visible" xml:space="preserve">
    <g fill="none" stroke="#000" stroke-width="1.5">
        <path d="M9.025 77.854V52.322H.375v-2.605H20.28v2.605h-8.65v25.533l-2.605-.001h0z" style="animation:qiPtOfOj_draw 1700ms ease-in-out 0ms forwards" stroke-dasharray="97 99" stroke-dashoffset="98" />
        <path d="M23.927 77.854h-2.866L34.452 48.57 47.74 77.854h-2.866l-3.283-7.142H27.157l-3.23 7.142zM34.4 54.875l-6.044 13.234h12.037L34.4 54.875z" style="animation:qiPtOfOj_draw 1700ms ease-in-out 0ms forwards" stroke-dasharray="142 144" stroke-dashoffset="143" />
        <path d="M72.699 77.854h-2.866l-3.752-8.963-3.751 8.963h-2.813l5.158-12.297-4.324-10.421-9.536 22.719H48l12.4-29.493 5.731 13.756 5.784-13.756 12.298 29.493H81.35l-9.481-22.719-4.329 10.317 5.159 12.401z" style="animation:qiPtOfOj_draw 1700ms ease-in-out 0ms forwards" stroke-dasharray="224 226" stroke-dashoffset="225" />
        <path d="M87.34 77.854h-2.865l13.39-29.284 13.288 29.284h-2.863l-3.283-7.142H90.57l-3.23 7.142zm10.473-22.979l-6.044 13.234h12.037l-5.993-13.234z" style="animation:qiPtOfOj_draw 1700ms ease-in-out 0ms forwards" stroke-dasharray="142 144" stroke-dashoffset="143"/><path d="M131.526 77.854l-13.601-14.02v14.02h-2.605V49.717h2.605v13.705l13.184-13.705h3.282l-13.235 13.759 13.969 14.383-3.599-.005h0z" style="animation:qiPtOfOj_draw 1700ms ease-in-out 0ms forwards" stroke-dasharray="146 148" stroke-dashoffset="147"/><path d="M145.542 75.25v2.604h-7.814V75.25h2.604V52.322h-2.604v-2.605h7.814v2.605h-2.604V75.25h2.604z" style="animation:qiPtOfOj_draw 1700ms ease-in-out 0ms forwards" stroke-dasharray="83 85" stroke-dashoffset="84"/><path d="M171.386 77.854V52.322h-8.649v-2.605h19.905v2.605h-8.646v25.533l-2.61-.001h0z" style="animation:qiPtOfOj_draw 1700ms ease-in-out 0ms forwards" stroke-dasharray="97 99" stroke-dashoffset="98"/><path d="M186.288 77.854h-2.866l13.392-29.284L210.1 77.854h-2.865l-3.279-7.142h-14.438l-3.23 7.142zm10.473-22.979l-6.045 13.234h12.037l-5.992-13.234z" style="animation:qiPtOfOj_draw 1700ms ease-in-out 0ms forwards" stroke-dasharray="142 144" stroke-dashoffset="143"/><path d="M216.874 77.854h-2.604V48.935l16.313 21.833V49.717h2.604V78.64l-16.311-21.833-.002 21.047h0z" style="animation:qiPtOfOj_draw 1700ms ease-in-out 0ms forwards" stroke-dasharray="160 162" stroke-dashoffset="161"/><path d="M248.034 75.25v2.604h-7.814V75.25h2.604V52.322h-2.604v-2.605h7.814v2.605h-2.604V75.25h2.604z" style="animation:qiPtOfOj_draw 1700ms ease-in-out 0ms forwards" stroke-dasharray="83 85" stroke-dashoffset="84"/><path d="M275.859 77.854h-2.863l-3.752-8.963-3.754 8.963h-2.813l5.158-12.297-4.324-10.421-9.535 22.719h-2.813l12.399-29.493 5.73 13.756 5.784-13.756 12.297 29.493h-2.866l-9.481-22.719-4.326 10.317 5.159 12.401z" style="animation:qiPtOfOj_draw 1700ms ease-in-out 0ms forwards" stroke-dasharray="224 226" stroke-dashoffset="225"/><path d="M300.922 78.114a9.093 9.093 0 01-9.118-9.118V50.759a1.29 1.29 0 011.303-1.303c.729 0 1.305.574 1.305 1.303v18.238a6.52 6.52 0 006.515 6.516 6.518 6.518 0 006.513-6.516V50.759c0-.729.574-1.303 1.304-1.303.73 0 1.308.574 1.308 1.303v18.238a9.11 9.11 0 01-9.13 9.117z" style="animation:qiPtOfOj_draw 1700ms ease-in-out 0ms forwards" stroke-dasharray="131 133" stroke-dashoffset="132"/><path d="M318.115 52.322a1.291 1.291 0 01-1.304-1.302c0-.73.573-1.307 1.304-1.307h7.033c4.848 0 8.809 3.964 8.809 8.81 0 3.387-1.93 6.305-4.739 7.813 3.752 1.933 6.461 5.267 7.396 9.796.054.366.157.573.157.938a1.29 1.29 0 01-1.303 1.303 1.29 1.29 0 01-1.306-1.303c0-.208-.054-.365-.104-.572-1.302-5.419-5.836-9.172-11.463-9.172h-.313v10.526h-2.604v-25.53h-1.563zm7.035 0h-2.865v12.401h2.865c3.388 0 6.201-2.813 6.201-6.2s-2.816-6.201-6.201-6.201z" style="animation:qiPtOfOj_draw 1700ms ease-in-out 0ms forwards" stroke-dasharray="147 149" stroke-dashoffset="148"/><path d="M341.044 77.854h-2.867l13.392-29.284 13.287 29.284h-2.865l-3.281-7.142h-14.435l-3.231 7.142zm10.472-22.979l-6.044 13.234h12.037l-5.993-13.234z" style="animation:qiPtOfOj_draw 1700ms ease-in-out 0ms forwards" stroke-dasharray="142 144" stroke-dashoffset="143"/></g>
    <g stroke="#000" stroke-width=".75"><path d="M145.679 88.108c0-.202.162-.385.385-.385h4.479c2.493 0 4.539 2.023 4.539 4.479 0 2.513-2.046 4.563-4.521 4.563h-3.343v4.762a.399.399 0 01-.385.385h-.771a.385.385 0 01-.385-.385l.002-13.419h0zm4.763 7.153a3.097 3.097 0 003.08-3.104c0-1.642-1.419-2.896-3.08-2.896h-3.222v5.998l3.222.002h0z" style="animation:qiPtOfOj_draw 1700ms ease-in-out 0ms forwards" stroke-dasharray="65 67" stroke-dashoffset="66"/><path d="M156.967 88.108c0-.202.182-.385.385-.385h.628c.203 0 .385.183.385.385v6.563s1.074-1.071 2.719-1.071c2.006 0 3.141 1.274 3.141 3.646v4.275a.4.4 0 01-.385.385h-.648a.399.399 0 01-.385-.385v-4.275c0-1.541-.688-2.29-1.824-2.29-1.54 0-2.611 1.138-2.611 1.138v5.431a.401.401 0 01-.388.385h-.628a.399.399 0 01-.385-.385l-.004-13.417h0z" style="animation:qiPtOfOj_draw 1700ms ease-in-out 0ms forwards" stroke-dasharray="55 57" stroke-dashoffset="56"/><path d="M170.442 93.599c2.25 0 4.033 1.942 4.033 4.232 0 2.331-1.783 4.276-4.033 4.276-2.249 0-4.029-1.945-4.029-4.276-.004-2.286 1.78-4.232 4.029-4.232zm0 7.195c1.479 0 2.638-1.314 2.638-2.959 0-1.601-1.155-2.896-2.638-2.896-1.479 0-2.634 1.297-2.634 2.896 0 1.641 1.155 2.959 2.634 2.959z" style="animation:qiPtOfOj_draw 1700ms ease-in-out 0ms forwards" stroke-dasharray="44 46" stroke-dashoffset="45"/><path d="M177.291 95.018h-1.034a.388.388 0 01-.385-.388v-.443a.37.37 0 01.385-.385h1.034v-2.249c0-.203.182-.389.385-.389l.646-.04c.203 0 .365.186.365.388v2.29h2.354a.37.37 0 01.385.385v.443a.388.388 0 01-.385.388h-2.354v4.738c0 .813.203.976.668.976.507 0 1.216-.304 1.479-.445.304-.162.385-.041.483.121l.307.507c.142.243.081.365-.145.507-.283.186-1.378.689-2.33.689-1.62 0-1.861-.973-1.861-2.229l.003-4.864h0z" style="animation:qiPtOfOj_draw 1700ms ease-in-out 0ms forwards" stroke-dasharray="37 39" stroke-dashoffset="38"/><path d="M187.138 93.599c2.25 0 4.033 1.942 4.033 4.232 0 2.331-1.783 4.276-4.033 4.276-2.248 0-4.032-1.945-4.032-4.276.001-2.286 1.784-4.232 4.032-4.232zm0 7.195c1.48 0 2.635-1.314 2.635-2.959 0-1.601-1.151-2.896-2.635-2.896-1.479 0-2.633 1.297-2.633 2.896.001 1.641 1.155 2.959 2.633 2.959z" style="animation:qiPtOfOj_draw 1700ms ease-in-out 0ms forwards" stroke-dasharray="44 46" stroke-dashoffset="45"/><path d="M194.009 99.193s-.648-.831-.648-2.027c0-1.884 1.317-3.563 3.428-3.563h3.424c.223 0 .385.162.385.386v.345c0 .145-.08.324-.223.346l-1.097.224s.912.669.912 2.27c0 1.848-1.314 3.445-3.401 3.445-1.3 0-1.929-.507-1.929-.507s-.891.405-.891 1.216c0 .507.364.993 1.113.993H198c1.703 0 3.041.831 3.041 2.594 0 1.684-1.744 3.282-4.195 3.282-2.715 0-3.891-1.459-3.891-2.796 0-1.216.973-1.766 1.176-1.885v-.063c-.527-.142-1.48-.669-1.48-1.925-.001-1.545 1.358-2.335 1.358-2.335zm2.817 7.68c1.336 0 2.715-.75 2.715-1.926 0-.263-.121-1.316-1.541-1.316h-2.248s-1.357.364-1.357 1.563c-.001.97 1.052 1.679 2.431 1.679zm2.006-9.747c0-1.337-.813-2.27-2.027-2.27-1.236 0-2.127.933-2.127 2.27s.891 2.271 2.127 2.271c1.216-.002 2.027-.934 2.027-2.271z" style="animation:qiPtOfOj_draw 1700ms ease-in-out 0ms forwards" stroke-dasharray="81 83" stroke-dashoffset="82"/><path d="M202.761 94.187a.4.4 0 01.386-.385h.389c.159 0 .303.102.344.28l.162.588s.75-1.071 2.432-1.071c.607 0 1.621.102 1.418.669l-.242.688c-.102.266-.284.266-.483.186a2.091 2.091 0 00-.791-.162c-1.539 0-2.209 1.135-2.209 1.135v5.41a.401.401 0 01-.388.385h-.628a.4.4 0 01-.386-.385l-.004-7.338h0z" style="animation:qiPtOfOj_draw 1700ms ease-in-out 0ms forwards" stroke-dasharray="26 28" stroke-dashoffset="27"/><path d="M212.185 96.761c.871 0 1.726.263 1.726.263.02-1.499-.162-2.188-1.318-2.188a7.24 7.24 0 00-2.432.446c-.202.081-.324-.021-.388-.203l-.162-.507c-.08-.242.041-.364.226-.445.122-.061 1.297-.524 2.813-.524 2.068 0 2.574 1.055 2.574 3.425v4.499a.399.399 0 01-.385.385h-.385c-.226 0-.284-.121-.349-.304l-.162-.548a3.51 3.51 0 01-2.512 1.055c-1.418 0-2.492-1.034-2.492-2.655.004-1.544 1.158-2.699 3.246-2.699zm-.527 4.133c1.014 0 1.885-.628 2.229-1.138v-1.601c-.242-.142-.811-.324-1.701-.324-1.135 0-1.942.567-1.942 1.621-.004.814.543 1.442 1.414 1.442z" style="animation:qiPtOfOj_draw 1700ms ease-in-out 0ms forwards" stroke-dasharray="46 48" stroke-dashoffset="47"/><path d="M219.461 107.602a.403.403 0 01-.386.385h-.631a.4.4 0 01-.385-.385V94.187a.4.4 0 01.385-.385h.429c.182 0 .239.061.321.264l.144.385s.893-.852 2.352-.852c2.209 0 3.83 1.942 3.83 4.273 0 2.37-1.662 4.235-3.891 4.235-1.338 0-2.168-.669-2.168-.669v6.164zm1.984-6.849c1.563 0 2.655-1.273 2.655-2.896 0-1.58-.933-2.979-2.554-2.979-1.316 0-2.066.992-2.066.992v4.175c0-.001.852.708 1.965.708z" style="animation:qiPtOfOj_draw 1700ms ease-in-out 0ms forwards" stroke-dasharray="59 61" stroke-dashoffset="60"/><path d="M227.828 88.108a.4.4 0 01.385-.385h.629c.203 0 .385.183.385.385v6.563s1.074-1.071 2.715-1.071c2.007 0 3.145 1.274 3.145 3.646v4.275a.402.402 0 01-.389.385h-.646a.4.4 0 01-.385-.385v-4.275c0-1.541-.688-2.29-1.823-2.29-1.54 0-2.614 1.138-2.614 1.138v5.431a.399.399 0 01-.385.385h-.629a.4.4 0 01-.385-.385l-.003-13.417h0z" style="animation:qiPtOfOj_draw 1700ms ease-in-out 0ms forwards" stroke-dasharray="55 57" stroke-dashoffset="56"/><path d="M236.704 94.248c-.122-.263 0-.442.304-.442h.893c.162 0 .283.102.347.223l2.999 6.201h.021l2.836-6.201a.417.417 0 01.346-.223h.771c.305 0 .445.2.305.466l-6.222 13.476c-.063.121-.202.243-.345.243h-.75c-.306 0-.468-.223-.324-.507l2.594-5.593-3.775-7.643z" style="animation:qiPtOfOj_draw 1700ms ease-in-out 0ms forwards" stroke-dasharray="50 52" stroke-dashoffset="51"/></g>
    <g fill="none" stroke="#000" stroke-width="3" stroke-linecap="round" stroke-linejoin="round"><path d="M105.979 93.693s5.292 9.261 10.584 0M116.673 93.693s5.292 9.261 10.584 0" style="animation:qiPtOfOj_draw 1700ms ease-in-out 0ms forwards" stroke-dasharray="14 16" stroke-dashoffset="15"/><path d="M127.478 94.023s5.292 9.262 10.584 0" style="animation:qiPtOfOj_draw 1700ms ease-in-out 0ms forwards" stroke-dasharray="15 17" stroke-dashoffset="16"/></g>
    <g fill="none" stroke="#000" stroke-width="3" stroke-linecap="round" stroke-linejoin="round" stroke-dasharray="15 17" stroke-dashoffset="16"><path d="M252.168 94.898s5.292 9.262 10.584 0M262.863 94.898s5.293 9.262 10.584 0M273.667 95.229s5.292 9.262 10.584 0" style="animation:qiPtOfOj_draw 1700ms ease-in-out 0ms forwards"/>
    </g>
    <path stroke="#000" stroke-width=".5" d="M208.519 36.232a.84.84 0 00-.8.879l.081 1.673a.84.84 0 001.679-.081l-.081-1.673a.839.839 0 00-.879-.798z" style="animation:qiPtOfOj_draw 1700ms ease-in-out 0ms forwards" stroke-dasharray="9 11" stroke-dashoffset="10"/><path d="M186.764 0c-.3 0-.577.16-.729.42L160.59 44.492a.84.84 0 101.455.837l24.72-42.813 24.72 42.813c.23.401.745.54 1.146.312a.845.845 0 00.308-1.149L187.492.42a.84.84 0 00-.728-.42z" style="animation:qiPtOfOj_draw 1700ms ease-in-out 0ms forwards" stroke-dasharray="208 210" stroke-dashoffset="209" />
<path d="M195.17 4.792a.838.838 0 00-.247 1.163l7.998 12.326a.84.84 0 001.408-.915L196.332 5.04a.84.84 0 00-1.162-.248zM214.823 2.267l-3.136 14.352a.84.84 0 101.644.358l3.136-14.354a.84.84 0 10-1.644-.356z" style="animation:qiPtOfOj_draw 1700ms ease-in-out 0ms forwards" stroke-dasharray="35 37" stroke-dashoffset="36" />
<path d="M231.504 21.285l-12.643 2.104a.832.832 0 00-.688.966c.075.458.51.767.967.688l12.64-2.104a.835.835 0 00.689-.966.838.838 0 00-.965-.688z" style="animation:qiPtOfOj_draw 1700ms ease-in-out 0ms forwards" stroke-dasharray="31 33" stroke-dashoffset="32" />
<path stroke="#000" stroke-width=".5" d="M216.941 32.64a.84.84 0 00-.124 1.181l9.267 11.401a.845.845 0 001.183.123.845.845 0 00.122-1.186l-9.264-11.397a.844.844 0 00-1.184-.122z" style="animation:qiPtOfOj_draw 1700ms ease-in-out 0ms forwards" stroke-dasharray="35 37" stroke-dashoffset="36" />
<path d="M206.991 6.42a.835.835 0 00-.771.903l.688 8.79a.839.839 0 101.671-.131l-.688-8.79a.835.835 0 00-.9-.772zM222.22 12.244l-5.894 6.551a.841.841 0 001.251 1.125l5.896-6.55a.843.843 0 00-1.253-1.126zM218.237 29.008a.843.843 0 00.585 1.033l8.492 2.354a.838.838 0 10.449-1.617l-8.495-2.354a.839.839 0 00-1.031.584z" style="animation:qiPtOfOj_draw 1700ms ease-in-out 0ms forwards" stroke-dasharray="23 25" stroke-dashoffset="24" />
<path d="M196.483 18.141a.839.839 0 00.219 1.168l2.89 1.985a.84.84 0 10.952-1.384l-2.893-1.989a.844.844 0 00-1.168.22z" style="animation:qiPtOfOj_draw 1700ms ease-in-out 0ms forwards" stroke-dasharray="13 15" stroke-dashoffset="14" />
<path stroke="#000" stroke-width=".5" d="M213.123 35.47a.84.84 0 00-.597 1.025l2.279 8.521a.84.84 0 001.622-.434l-2.279-8.521a.837.837 0 00-1.025-.591z" style="animation:qiPtOfOj_draw 1700ms ease-in-out 0ms forwards" stroke-dasharray="23 25" stroke-dashoffset="24" />
<path stroke="#000" stroke-width=".5" d="M202.122 33.089l-14.754 10.064-14.752-10.064z" style="animation:qiPtOfOj_draw 1700ms ease-in-out 0ms forwards" stroke-dasharray="66 68" stroke-dashoffset="67" />
<path d="M196.902 23.791l-9.958 6.798-9.958-6.798z" style="animation:qiPtOfOj_draw 1700ms ease-in-out 0ms forwards" stroke-dasharray="45 47" stroke-dashoffset="46" />
<path d="M193.914 16.506l-6.615 4.513-6.615-4.513z" style="animation:qiPtOfOj_draw 1700ms ease-in-out 0ms forwards" stroke-dasharray="30 32" stroke-dashoffset="31" />
<path d="M199.978 25.35l1.663.229c.498-3.592 3.612-6.301 7.242-6.301 4.036 0 7.313 3.283 7.313 7.317 0 4.032-3.277 7.316-7.313 7.316a7.415 7.415 0 01-2.488-.438l-.563 1.583a9.148 9.148 0 003.055.538c4.962 0 8.995-4.037 8.995-9 0-4.964-4.033-8.998-8.995-8.998-4.467.002-8.296 3.334-8.909 7.754z" style="animation:qiPtOfOj_draw 1700ms ease-in-out 0ms forwards" stroke-dasharray="84 86" stroke-dashoffset="85" />
<style data-made-with="vivus-instant">
    @keyframes qiPtOfOj_draw {
    to {
    stroke-dashoffset: 0
    }
    }
    
    @-webkit-keyframes qiPtOfOj_draw {
    to {
    stroke-dashoffset: 0
    }
    }
    
    @-moz-keyframes qiPtOfOj_draw {
    to {
    stroke-dashoffset: 0
    }
    }
    
    @-0-keyframes qiPtOfOj_draw {
    to {
    stroke-dashoffset: 0
    }
    }

    @keyframes qiPtOfOj_fade {

    0%,
    93.22033898305085% {
    stroke-opacity: 1
    }

    to {
    stroke-opacity: 0
    }
    }
    
    @-webkit-keyframes qiPtOfOj_fade {

    0%,
    93.22033898305085% {
    stroke-opacity: 1
    }

    to {
    stroke-opacity: 0
    }
    }
    
    @-moz-keyframes qiPtOfOj_fade {

    0%,
    93.22033898305085% {
    stroke-opacity: 1
    }

    to {
    stroke-opacity: 0
    }
    }
    
    @-o-keyframes qiPtOfOj_fade {

    0%,
    93.22033898305085% {
    stroke-opacity: 1
    }

    to {
    stroke-opacity: 0
    }
    }
    </style>
        </svg>