<svg xmlns="http://www.w3.org/2000/svg" width="255" height="290" viewBox="0 -5 155.774 190.03" overflow="visible"><g id="cactus" fill="none" stroke="#000" stroke-width="1.5" stroke-linecap="round" stroke-linejoin="round"><path d="M30.36 142.308s-3.109-48.27-2.21-59.587c.987-12.422 7.381-18.784 11.525-1.211 2.132 9.241-.947 61.203-.947 61.203l-8.368-.405z"/><path d="M40.009 120.745s8.055-.605 9.448-9.089c1.395-8.484 1.705-11.11 4.338-11.11 2.632 0 3.562 6.665 3.562 7.676 0 1.01-.154 12.119-4.336 17.574s-6.661 7.675-13.786 7.473"/><path d="M39.517 127.209s6.836.602 10.698-6.229c3.862-6.832 4.16-20.293 4.16-20.293M29.018 122.461s-10.578.809-14.84-8.685c-4.263-9.494-3.475-13.937-3.632-16.563-.158-2.626 1.421-14.543 7.895-4.241 4.894 11.108 3.789 14.34 10.104 17.37"/><path d="M11.216 92.417s4.579 14.543 7.579 18.785c3 4.241 4.262 5.454 9.788 5.857M32.728 71.056l-.158 70.696M36.478 73.025l-.592 69.332M79.372 145.254s2.482-31.602 1.765-39.012c-.788-8.132-5.896-12.297-9.205-.792-1.702 6.049.757 40.069.757 40.069l6.683-.265zM71.562 132.548s-5.206-.328-6.106-4.927c-.901-4.597-1.103-6.021-2.804-6.021s-2.302 3.613-2.302 4.16c0 .548.099 6.568 2.803 9.526 2.704 2.956 4.305 4.159 8.912 4.051"/><path d="M71.56 136.052s-4.463.321-6.985-3.322c-2.521-3.646-2.715-10.83-2.715-10.83M80.77 124.271s6.777.426 9.508-4.561c2.731-4.985 2.227-7.318 2.327-8.698.103-1.379-.91-7.638-5.058-2.227-3.135 5.833-2.428 7.531-6.474 9.123"/><path d="M90.855 107.084s-2.51 7.695-4.153 9.939c-1.645 2.244-2.336 2.887-5.364 3.1M77.48 98.606l.126 46.284M74.485 99.895l.473 45.391"/></g><ellipse fill="none" stroke="#000" stroke-width="1.5" cx="115.872" cy="32.306" rx="13.435" ry="13.441" id="sun_circle"/><g style="-webkit-animation:rotate 4s linear infinite;-moz-animation:rotate 4s linear infinite;-ms-animation:rotate 4s linear infinite;-o-animation:rotate 4s linear infinite;animation:rotate 4s linear infinite;-webkit-transform-origin:116px 32px;-moz-transform-origin:116px 32px;-ms-transform-origin:116px 32px;-o-transform-origin:116px 32px;transform-origin:116px 32px" fill="none" stroke="#000" stroke-width="1.5" stroke-linecap="round" stroke-linejoin="round"><path d="M116.066 15.944V.75M116.066 63.083V47.89M132.422 32.891h14.602M84.524 32.891h14.41M126.971 20.034l9.734-9.739M94.065 54.902l10.403-10.407M137.095 54.318l-9.819-9.823M103.606 20.424l-9.93-9.934M132.032 25.489l7.555-3.131M92.313 41.461l7.554-3.13M125.607 56.461l-3.129-7.559M109.446 16.139l-3.128-7.559M122.063 15.689l3.129-7.559M132.109 39.88l7.555 3.13M92.253 23.299l7.556 3.13M105.709 56.06l3.128-7.559"/></g><g id="letter"><path d="M6.98 169.716H5.93v-11.654l6.573 8.799v-8.484h1.05v11.654l-6.573-8.799v8.484zM21.952 169.821c-3.213 0-5.774-2.563-5.774-5.775s2.562-5.775 5.774-5.775 5.775 2.563 5.775 5.775-2.562 5.775-5.775 5.775zm0-10.5c-2.625 0-4.725 2.1-4.725 4.725s2.1 4.725 4.725 4.725 4.726-2.1 4.726-4.725-2.101-4.725-4.726-4.725zM37.073 169.821c-.777 0-1.303-.399-1.891-1.051-.588.672-1.112 1.051-1.89 1.051-2.247 0-3.255-2.584-3.255-5.775 0-2.205.378-4.662.63-5.67h1.134c-.252.734-.714 3.486-.714 5.67 0 2.604.756 4.725 2.205 4.725.546 0 .861-.314 1.281-.84-.609-1.008-.967-2.395-.967-3.885 0-2.563.841-3.76 1.575-3.76.735 0 1.575 1.261 1.575 3.76 0 1.512-.357 2.855-.966 3.885.44.525.734.84 1.281.84 1.448 0 2.184-2.121 2.184-4.725 0-2.184-.462-4.936-.714-5.67h1.134c.252 1.008.63 3.465.63 5.67.002 3.191-.986 5.775-3.232 5.775zm-1.89-8.358c-.314 0-.524 1.28-.524 2.583 0 1.07.188 2.037.524 2.835.336-.798.525-1.785.525-2.835 0-1.303-.21-2.583-.525-2.583zM54.817 168.666v1.05h-6.006v-11.34h1.05v10.29h4.956zM61.831 169.821c-3.213 0-5.774-2.563-5.774-5.775s2.562-5.775 5.774-5.775 5.775 2.563 5.775 5.775-2.562 5.775-5.775 5.775zm0-10.5c-2.625 0-4.725 2.1-4.725 4.725s2.1 4.725 4.725 4.725 4.726-2.1 4.726-4.725-2.101-4.725-4.726-4.725zM69.707 169.716h-1.155l5.397-11.802 5.354 11.802h-1.155l-1.322-2.877h-5.817l-1.302 2.877zm4.221-9.261l-2.436 5.334h4.851l-2.415-5.334zM80.354 169.19a.52.52 0 01.525-.524h.63v-9.24h-.63a.52.52 0 01-.525-.524.52.52 0 01.525-.525h2.729c3.129 0 5.67 2.541 5.67 5.67s-2.541 5.67-5.67 5.67h-2.729a.522.522 0 01-.525-.527zm2.205-.524h1.05c2.541 0 4.62-2.079 4.62-4.62s-2.079-4.62-4.62-4.62h-1.05v9.24zM94.528 168.666v1.05h-3.149v-1.05h1.05v-9.24h-1.05v-1.05h3.149v1.05h-1.05v9.24h1.05zM98.414 169.716h-1.051v-11.654l6.573 8.799v-8.484h1.05v11.654l-6.572-8.799v8.484zM116.725 164.76h-3.339v-1.05h4.39v4.095c-.441.546-1.911 2.017-4.39 2.017-3.213 0-5.774-2.563-5.774-5.775s2.562-5.775 5.774-5.775c2.163 0 3.633 1.219 4.054 1.639.146.146.21.293.21.44a.52.52 0 01-.525.525c-.189 0-.273-.084-.357-.147-.482-.441-1.512-1.406-3.381-1.406-2.625 0-4.725 2.1-4.725 4.725s2.1 4.725 4.725 4.725c1.681 0 2.814-.84 3.339-1.365v-2.648zM121.891 169.821a1.555 1.555 0 110-3.109c.861 0 1.575.692 1.575 1.554s-.714 1.555-1.575 1.555zm-.021-2.289a.744.744 0 00-.735.734c0 .399.336.735.735.735a.744.744 0 00.734-.735.743.743 0 00-.734-.734zM127.561 169.821a1.555 1.555 0 110-3.109c.861 0 1.575.692 1.575 1.554s-.714 1.555-1.575 1.555zm-.021-2.289a.744.744 0 00-.735.734c0 .399.336.735.735.735a.744.744 0 00.734-.735.744.744 0 00-.734-.734zM133.23 169.821a1.555 1.555 0 110-3.109c.861 0 1.575.692 1.575 1.554s-.713 1.555-1.575 1.555zm-.02-2.289a.744.744 0 00-.735.734c0 .399.336.735.735.735a.744.744 0 00.734-.735.744.744 0 00-.734-.734z"/></g><g id="ground"><path fill="none" d="M0 147.466c4.001-2.077 8.64-2.647 12.923-1.109 3.915 1.406 6.038 4.811 10.54 3.756 5.573-1.305 6.78-5.385 13.534-4.045 5.106 1.013 9.456 4.875 14.452 5.924 5.027 1.056 10.541-1.755 15.544-2.025 2.79-.151 6.769-.651 9.532.002 1.9.449 2.937 2.197 4.989 2.646 3.23.707 5.364-1.401 8.387-1.784 3.094-.391 5.903.978 8.996 2.134 3.069 1.147 2.155 1.646 5.628 1.389 2.275-.168 3.181-1.963 5.976-1.387M2 142.195c3.5-3.5 8.5-2.5 13-1.5 6.5 2 7 2 14 1 6.5-.5 7 1 13 2.5 7.5 3 9-1 16.5-2.5 5.5-1 8 1 13 2 1.5.5 4 2 6 2 3-.5 4-5 8-5 6.5 0 12 7.5 20.5 5.5 5-1 11-8 16.5-.5"/><path d="M123.377 144.849c.117.171.239-.011.289-.009-.263-.245-.326.049-.289.009zM120.625 142.78l.102-.037-.547-.094zM117.611 141.594c.25.378 1.179.146 1.684.528l.057.109.367-.166c-.698-.263-1.619-.34-2.108-.471zM115.797 140.819c.132.132-.388.155.438.003l-.083-.034c-.081-.001-.181.015-.355.031z"/><path d="M116.151 140.788c.379-.017-.257-.111 0 0zM114.521 141.145l.427-.228c-.123-.076-.525.023-.391-.076-.448.193-.327.245-.036.304zM114.174 141.512l.21-.113c-.047-.023-.112-.017-.21.113zM114.839 141.159l-.455.239c.079.038.112.148.211-.1-.015.115.053-.011.244-.139zM115.138 141.165c.275.034.607.031.174.225.854-.182.711-.414-.174-.225zM117.408 141.934l.303.157.295-.07c-.146.034-.605-.202-.598-.087zM111.843 141.907c.006.081.214.127.281.203l.254-.209c-.168.019-.47.101-.535.006zM112.124 142.11l-.376.311c.388-.157.434-.244.376-.311zM114.21 141.914l.699-.477-.845.521zM110.227 142.664l.157-.272-.295.442zM109.227 143.203c.1-.212-.337-.107-.203-.274-.254.153-.426.377-.582.58.191-.164.428-.263.785-.306zM108.169 143.821l.272-.313-.272.313zM111.02 142.724c-.052-.026-.166-.104-.42-.036l.256.113.164-.077zM110.864 142.804l-.009-.003-.355.16c.046-.021.156-.068.364-.157zM111.061 142.704l-.041.02.041-.02zM112.968 142.138c-.226.204-.684.552-.115.503.129-.205-.21-.189.115-.503zM111.377 142.847l.465-.162c-.033-.047-.148-.085-.05-.194l-.415.356zM111.192 143.012l.185-.165-.169.063zM108.964 143.657c-.139.171-.332.275-.548.398l.746-.296c.004-.075.053-.234-.198-.102zM109.885 143.264l-.035.031.035-.031zM106.283 144.891l.045.029-.003-.038zM109.221 143.776a.559.559 0 00.357-.265l-.416.248c-.001.035.005.054.059.017zM107.615 144.179l.351-.029c-.117-.021-.341-.037-.351.029zM109.762 143.273l.022-.022c-.08-.011-.062.005-.022.022zM109.762 143.273l-.184.239.272-.217zM105.909 146.39c.003-.172.464-.503.97-.413.39-.295-.125-.782-.551-1.057.011.086.038.16-.342.384.158.068.987-.001.686.265-.544.249-.487.057-.778.027.302.218-.713.439-.511.781l.519-.185c.023.054-.156.163.007.198z"/><path d="M107.092 144.684l.157-.085c-.201.038-.364.015-.656-.04-.233.181-.266.25-.268.323l.813-.247-.046.049zM107.996 144.28c-.041.254-.415.522-.072.624.497-.239.279-.323.536-.54-.777.407.179-.211-.448-.064l.404-.244-.45.094.024.005.003-.003v.003c.046.01.064.02.019.023l-.015.011-.002.09c-.247.063-.059-.035.002-.09l-.004-.034h-.003l-.741.444c.175-.027.384-.127.747-.319zM112.581 143.267l-.048-.034c-.044.047-.056.074.048.034zM112.182 143.302c.049-.054.064-.156.273-.226.199-.018.04.096.078.156.097-.105.361-.331-.06-.257l-.049.053c-.371.083-.927.042-.878-.01.181.127.33.212.636.284zM110.064 143.866l-.633.435.43-.005-.068-.092c.407-.156.262-.236.271-.338zM106.184 144.807l.021-.242-.277.408zM105.302 145.002l-.005-.197-.209.14zM53.782 144.446l-.182.139.182-.139zM55.251 143.892l.002-.105c-.048.074-.063.122-.002.105zM81.823 140.722c-.414.078-.963.141-.776.278l.236.091c.191-.195.372-.302.54-.369zM67.8 142.77l.072.091.272-.133zM67.317 143.561l-.37-.261c.079.075.198.161.37.261zM44.524 146.432l-.342.174c.467.067.284-.074.342-.174zM96.239 143.456a2.656 2.656 0 00-.559-.398c.242.246.404.526.559.398zM53.495 142.07c-.121.085-.154.152-.133.194.116-.091.182-.154.133-.194zM94.961 142.693l.108.113.611.251c-.178-.185-.408-.375-.719-.364zM13.174 141.569l-.065-.04.065.04zM3.823 139.804c.087-.058.239-.133.381-.206-.075.02-.193.08-.381.206zM101.743 145.01c.19.01.032-.021 0 0zM102.619 145.985l-.085.096.085-.096zM92.488 142.944l-.016-.009c.038.066.032.054.016.009zM102.017 145.144l-.234-.094c.036.02.107.051.234.094zM101.987 145.037l.162.042c.027-.033.008-.058-.162-.042zM101.481 144.988l.301.062-.039-.04c-.055-.004-.133-.009-.262-.022zM30.393 142.291l-.044-.019c-.205.1-.115.082.044.019zM78.938 146.256l.024-.022-.04.008zM78.054 146.736c.338-.394.543-.434.868-.494l-.544-.466c-.07.309-.178.632-.324.96z"/><path d="M50.729 145.743c-.812-.047-1.398.482-1.78.773-.311-.038.139-.506-.684-.308-1.194.242.297.471-.437.617l-.565-.305c-.947.394-1.623-.095-2.381-.188-.179.004-.272.028-.322.06-.766-.289-1.7-.144-2.264-.421.158-.025-.257-.315-.294-.417-.414-.063-.392.03-.9-.038.468.033.497-.168.625-.336-.314-.065-.489.001-.707-.032.147-.033.295-.067.155-.2l-1.132.033.268.132c-.262-.069-.869-.103-1.183-.389l.258-.157c.24.317.477.181.681.081-.725-.168-.165-.097-.463-.338-.496-.154-.783.033-.704.237-.536-.26-.712-.36-1.332-.367l.195-.222-.541-.099.525-.17c-.918-.519-.343.372-1.369-.142l.075-.229c-.442-.047-.7.297-.931-.083-.432.016.566.534-.358.302-.121-.158-.44-.331-.69-.444-.31.035.155.334.342.346-1.352-.23-.697-.974-2.005-.869.413.227-.39.412.601.547-.474.056-.913-.455-1.448-.205l.352-.295c-.188-.013-.404.092-.506.125l.05-.235c-.644.37-1.223-.197-1.599.363.255-.44-.488.047-.757-.108.527-.326 1.553-.062 1.621-.462-.258-.108-.481.097-.731-.009.17-.066.42-.183.485-.266-.838-.189-1.375.303-1.776.419.201-.034.57-.085.848-.127-.053.398-.403.086-.634.407-.34-.209-.765.191-1.125.1l.201-.063c-1.001.148-1.365-.45-1.765-.409-.398-.005-1.118.297-.83.432-.312.147 1.331-.275.816.302-.66-.536-1.154.396-2.5.071.55-.248-.352-.312.137-.503-.602.088-.62.177-.888.362l-.19-.177c-.812.4-.18.368-1.452.561.43-.113-.483-.315-.152-.42a2.233 2.233 0 00-.946.042l.049-.021c-1.258-.108-.959-.413-2.102-.453l.08.138c-1.459-.042-3.269-.879-4.555-1.016l.483.197c-.141-.089-.997-.033-1.404-.299l.334.025c.013-.124-.123-.348-.46-.446l-.168.163-.109-.171c-.519-.097.101.298-.416.201-.214-.628-2.204-.414-2.605-.928-.384.353.979.169.557.482-.151-.078-.214-.161-.548-.232l.096.25c-1.517-.223-2.129-.408-3.45-.144l.042-.063c-.478.035-.726.145-.864.393-.129-.08.186-.222-.022-.268-.573.77-1.734.264-1.988.901-.186-.462-1.421-.054-1.258-.665l-.278.299c-.087-.314.961-.836 1.017-1.19l1.314-.284c-.084-.091.044-.35-.162-.295.29-.149.55-.284.095-.26 3.187-.376 6.201-.66 8.946.264.193.007.107-.121.049-.208.451.396.517-.056.805-.041l.648.59c.327-.064.123-.245.163-.326 1.555.316 2.622 1.139 3.814 1.169.307.247-.172.319.274.498-.506-.581 1.375.088 1.046-.317.347.604 1.594.343 1.323.991.559.107.482-.228.331-.308.635.063 1.157.074 1.673-.149.356.166 2.942-.419 3.605-.024-.446-.268.008-.172.375-.367l-.387-.237.875-.091c.173-.052.225-.047.228-.021.15-.007-.012.17.374.19.577-.071.721-.215 1.002-.381l-.098-.038.421-.047c.308-.005-1.077.336-.063.438.008-.08.587-.487.866-.292-.516.008-.442.206-.251.282l.717-.011-.244-.354c2.092-.05 4.367.54 6.407 1.29-.131.292 1.425.52 1.089.898l-.063-.069c-.511-.134.02.408.446.487-.375-.28.908-.199-.094-.601l.858.047c.747-.666 1.976.639 3.475.807-.093.007-.131.046-.15.068 1.102.046 2.227.997 2.516.803l.053.256c.958-.313 1.029-.157 2.08-.148-.01.042-.128.124.043.16.244-.231.466-.352 1.17-.469l-.011.084 1.084-.351c.26.775 1.718-1.181 2.386-.56.136-.302.949-.728 1.281-.986l.128.058c.311-.553 1.378-.371 1.864-.599.302-.215.119-.286-.069-.356.755.073 1.8-.861 2.092-.809.517-.101.255.236.431.366.748-.245-.31-.685.842-.564-.118.048-.341.104-.245.137.428.01 1.236.793 1.593.571l-.269-.104c.707-.332 1.701.553 1.807.018l-.065-.239c1.23.314.542-.094 1.768.303l-.021.038c.555.004.779.367 1.112.048l-.173-.092c.664.119.728.144 1.384.333.085-.015.416.02.485.123.126-.304 1.552.298 1.817.408-.518-.11-.318.094-.214.263.373-.161.588-.114.94.18.172-.364.374-.748 1.169-.543-.139.022-.34-.001-.283.101.059.103.267.069.337.059.058.102-.214.09-.162.248.636-.202.935.201 1.745.262-.271.059-.077.185-.016.342.141-.482 1.181.815.96.115 1.502 1.002 3.73 1.651 4.213 1.994.128.185.569-.016.806.019l-.041.192c.409-.39.45-.213.907-.808-.134.389.002.418.391.372l.213-.646.283.168c.101-.264.328-.416.563-.574-.094.095-.023.063.021.097-.206-.363.605-1.173.581-1.438.501.078.51-.652.935-.527l.168-.365c-.223-.033-.415-.147-.13-.271l.052-.049.259.104a4.99 4.99 0 01.602-.563l-.32.089.367-.124.09-.063-.047.049c.17-.074.369-.127.587-.317.999-.164 2.471-1.321 3.556-.57-.164-.073-.403-.126-.471-.048.948.109 1.818.525 2.407.496l.019-.229c.659.118 1.177.224 1.686.416l.117-.227c.773.301 2.338.707 2.553 1.357.269-.103.904.507 1.291.637l.005.221c.449.302.776.393 1.087.488.791.863 1.855.868 2.679 1.29l-.013.055c.3.103.609.111.909.171-.284.094.21-.061.449.067.301-.004.721.187 1.012.413l.549.141c-.648.048-.02.282-.022.503l.399-.133c.13.125-.268.145-.004.226.269-.089.995.01 1.234-.192-.03-.061-.112-.125-.214-.183l-.009-.006-.022-.015.029.012.104-.076c.436.106.28-.006.271-.109.482.451.764.172 1.162.525-.546-.402 1.163-.138.793-.537.415.311.253-.01.537.264-.541-.04-1.035.344-1.479.55l.449.162c-.275.417-1.002.011-1.258.05.18-.042.575.031.591.102l-.118-.293c-.616-.135-1.116-.009-1.59.103.416.153-.545.117-.266.37l.352.007c.146.127-.2.178-.413.241-1.103-.214-3.042-.853-3.354-1.145.188.142.607.206.821.181l-.447-.277c.396.115.629.478 1.25.569-.044-.218.439-.341.079-.739-.977-.663-1.063.254-2.349-.363-.142.001.392-.17-.332-.386-.934-.212-1.769-.107-1.957.27.431.062 1.271.174 1.261.505-.422-.057-1.101-.284-1.222-.122-.231-.494.753.229.373-.269-.264-.112-.429-.059-.576-.063.234-.046-.117-.337-.154-.45-.819-.423-1.219-.807-2.085-1.279-.023-.068-.07-.217-.006-.281-.484-.124-1.327.059-1.26.335-.507-.226-.465-.392-.933-.508.553.616-.112-.112-.321.165-.454-.129-.089-.209-.264-.356-.089.008-.307.052-.351.134-.188-.339.784-.44.568-.833-.155-.256-1.075-.938-1.147-.99-.316.194-.565 1.362-.378 1.835-.091.179-.345-.347-.534-.437-.487-.475-.905.115-1.331-.089l.378-.132c-.065-.09-.772-.079-.882.021-.019-.114.405-.524.194-.688-.955-.282-1.613.663-1.463.911.336-.127.663-.413 1.124-.408-.005.219-.863.255-.745.628-.299.02-.629-.034-.912.119.098-.068.418-.279.237-.381-.388.201-.214.05-.538.055.215-.614 1.274-1.631 1.803-2.052-.236.004-.502.141-.743.228l-.21-.138c-1.076.289-1.259 1.822-1.26 2.064-.397.174-.609-.387-.572-.569-.823.585-.24 1.201-.961 1.813l.344-.155c-.114.182-.784.688-.646.715-.253.036-.65-.088-.57-.32l-.221 1.045c.06-.14-.352-.409-.371-.509-.274.238-.075.842.155.729-.794.259-.488.309-1.262.349-.166.156.313.403.5.334-.384.424-.693.576-.95.658.668-.672-.35-1.053-.391-1.459-.209.659-.44 1.387-1.356 1.868.073-.077.226-.515.214-.571-.149.45-2.342.141-3.172-.352l.141.046c.232-.066-.51-.459-.857-.468.084-.057.146-.001.277.052-.449-.545-1.01.262-1.444-.336.513.265.691.157.729-.011-.513-.066-1.406-.6-1.386-.053-.223-.204-.479-.241-.375-.472-.191.031-.757.02-1.123.03.099-.028.207-.155-.125-.269.698.243 1.308-.141 1.499.332.123-.283-.046-.531.329-.661-1.185-.285-2.046.197-2.908.283l-1.022-.527-.087.122-.081-.396c-.156.037-.261.079-.279.038-.015-.038.033-.073.101-.107l-.29.001c.014-.192.262-.34.519-.464l.234.277c.262-.11.464-.245.208-.441l-.171.03c.172-.089.284-.171.203-.249l-.858-.083c.077.074.186.214.312.374-.573.067-1.234.161-.853.53l-.554-.389c-.812.139-.671.095-1.593.118-.018-.131.236-.185.104-.305-.703.259-1.442-.803-1.649-.44-.521.027-.252.28-.58.343.019-.038.057-.112-.035-.129l-.396.21c-.146-.108.359-.136-.058-.296-.748.18-1.155.313-1.769.207-.855.171.404.46-.319.502-.124-.194-.243-.429-.708-.402-.222.173-.165.33-.552.47l-.03-.318c-.334.079-.65.239-.699-.003-.28.215-.497.245-.673.238-.526.311.585.519.735.609-.605-.091-.949.142-1.375-.146l.472-.211c-1.182-.114-.862.695-1.557.23.363-.115.748-.416.479-.518l-.472.348c-.089-.057.28-.166.008-.17a4.262 4.262 0 00-.475.538v-.021l-.917.395c.182-.053.183-.179-.002-.125l-.553.412c.158-.156-.073-.164-.372-.092-.842.255-.34.934-1.112.903l.197-.11-.394.007c.193.665-1.957.874-1.904 1.498-.636-.104-.073-.147.515-.652l-.63-.021c.22-.098.439-.096.648-.242zm6.183-2.44c.143.11.381-.112.511-.198-.261-.015-.426-.11-.511.198zm11.42.056c.167.143.329.23.462.187a1.076 1.076 0 00-.462-.187zm31.296 1.45l.019-.007c-.2-.113-.297-.183-.019.007zm.322.146c.157.069.303.112.36.067.02.041.016.076-.056.087-.203-.009-.275-.078-.304-.154zm-71.803-4.053l-.146-.044c-.076.081-.153.156.146.044z"/><path d="M67.378 143.47l-.024-.145c-.07.021-.085.066.024.145zM44.586 146.399l-.026-.006-.036.039zM89.56 142.636a.587.587 0 01-.205-.203c-.029.052.012.12.205.203zM103.672 144.976l-.398.11c.194-.035.265.009.365.035-.012-.055-.092-.127.033-.145zM107.618 145.715l.183-.104-.06-.098c-.26.105-.414.26-.123.202zM104.108 145.73c.052.199.32.1.617.029l-.054.006c.051-.29-.251-.163-.563-.035zM104.795 145.745l.279-.035c.017-.116-.117-.012-.279.035zM101.1 145.098c.129.068.128-.245.191-.154.197-.237-.96.199-.191.154zM104.422 146.368l-.138-.236-.157.221zM101.935 146.22l.495.133c-.005-.043.061-.06.139-.068-.308-.049-.639-.14-.634-.065zM102.568 146.284c.16.022.313.044.401.004-.085.002-.271-.02-.401-.004zM103.732 146.521l-.152-.036-.359.021zM96.754 144.74l-.532-.164c-.087.055.029.165.231.221.146 0 .345.055.301-.057zM98.076 145.997c-.131-.097-.121-.152-.174-.256l-.125.285.299-.029zM96.508 145.461c-.084.057-.85-.115-.185.166.087-.054.63.116.185-.166zM89.074 141.564l.134.043.149-.487zM83.02 143.068c.5-.22-.09-.323.394-.499.037-.18-.396.146-.353-.019-.198.308-.38.35-.041.518zM83.061 142.551l.096-.169-.096.169zM2.179 140.48l-.45.225.354-.065zM1.705 141.349l-.309-.167-.017.393c.072-.078.213-.23.326-.226zM58.645 143.462l.013-.085c-.077-.066-.167-.05-.35-.016l.337.101zM53.421 144.947l.092-.032-.282-.198zM48.592 146.995c.248.003.494-.134.715-.186-.464.208-.843-.178-.715.186z"/></g><style>@-webkit-keyframes rotate{0%{transform:rotate(0)}to{transform:rotate(360deg)}}@-moz-keyframes rotate{0%{transform:rotate(0)}to{transform:rotate(360deg)}}@-o-keyframes rotate{0%{transform:rotate(0)}to{transform:rotate(360deg)}}@keyframes rotate{0%{transform:rotate(0)}to{transform:rotate(360deg)}}</style></svg>